{
    "asset": {
        "generator": "FBX2glTF v0.13.1",
        "version": "2.0"
    },
    "scene": 0,
    "buffers": [
        {
            "byteLength": 12808,
            "uri": "data:application/octet-stream;base64,"
        }
    ],
    "bufferViews": [
        {
            "buffer": 0,
            "byteLength": 4,
            "byteOffset": 0
        },
        {
            "buffer": 0,
            "byteLength": 3108,
            "byteOffset": 4,
            "target": 34963
        },
        {
            "buffer": 0,
            "byteLength": 3636,
            "byteOffset": 3112,
            "target": 34962
        },
        {
            "buffer": 0,
            "byteLength": 3636,
            "byteOffset": 6748,
            "target": 34962
        },
        {
            "buffer": 0,
            "byteLength": 2424,
            "byteOffset": 10384,
            "target": 34962
        }
    ],
    "scenes": [
        {
            "name": "Root Scene",
            "nodes": [
                0
            ]
        }
    ],
    "accessors": [
        {
            "componentType": 5126,
            "type": "SCALAR",
            "count": 1,
            "bufferView": 0,
            "byteOffset": 0,
            "min": [
                0.0
            ],
            "max": [
                0.0
            ]
        },
        {
            "componentType": 5123,
            "type": "SCALAR",
            "count": 1554,
            "bufferView": 1,
            "byteOffset": 0
        },
        {
            "componentType": 5126,
            "type": "VEC3",
            "count": 303,
            "bufferView": 2,
            "byteOffset": 0,
            "min": [
                -0.0445767156779766,
                0.129567638039589,
                0.261949211359024
            ],
            "max": [
                -0.0433075241744518,
                0.153944447636604,
                0.263198554515839
            ]
        },
        {
            "componentType": 5126,
            "type": "VEC3",
            "count": 303,
            "bufferView": 3,
            "byteOffset": 0
        },
        {
            "componentType": 5126,
            "type": "VEC2",
            "count": 303,
            "bufferView": 4,
            "byteOffset": 0
        }
    ],
    "samplers": [
        {}
    ],
    "materials": [
        {
            "name": "lambert1",
            "alphaMode": "OPAQUE",
            "doubleSided": false,
            "extras": {
                "fromFBX": {
                    "shadingModel": "Lambert",
                    "isTruePBR": false
                }
            },
            "pbrMetallicRoughness": {
                "baseColorFactor": [
                    0.400000005960464,
                    0.400000005960464,
                    0.400000005960464,
                    1.0
                ],
                "metallicFactor": 0.200000002980232,
                "roughnessFactor": 0.800000011920929
            }
        }
    ],
    "meshes": [
        {
            "name": "nurbsToPoly1",
            "primitives": [
                {
                    "material": 0,
                    "mode": 4,
                    "attributes": {
                        "NORMAL": 3,
                        "POSITION": 2,
                        "TEXCOORD_0": 4
                    },
                    "indices": 1
                }
            ]
        }
    ],
    "animations": [
        {
            "name": "Take 001",
            "channels": [],
            "samplers": []
        }
    ],
    "nodes": [
        {
            "name": "RootNode",
            "translation": [
                0.0,
                0.0,
                0.0
            ],
            "rotation": [
                0.0,
                0.0,
                0.0,
                1.0
            ],
            "scale": [
                1.0,
                1.0,
                1.0
            ],
            "children": [
                1
            ]
        },
        {
            "name": "nurbsToPoly1",
            "translation": [
                0.0,
                0.0,
                0.0
            ],
            "rotation": [
                0.0,
                0.0,
                0.0,
                1.0
            ],
            "scale": [
                1.0,
                1.0,
                1.0
            ],
            "mesh": 0
        }
    ]
}