{
    "asset": {
        "generator": "FBX2glTF v0.13.1",
        "version": "2.0"
    },
    "scene": 0,
    "buffers": [
        {
            "byteLength": 17164,
            "uri": "data:application/octet-stream;base64,"
        }
    ],
    "bufferViews": [
        {
            "buffer": 0,
            "byteLength": 4,
            "byteOffset": 0
        },
        {
            "buffer": 0,
            "byteLength": 5640,
            "byteOffset": 4,
            "target": 34963
        },
        {
            "buffer": 0,
            "byteLength": 5760,
            "byteOffset": 5644,
            "target": 34962
        },
        {
            "buffer": 0,
            "byteLength": 5760,
            "byteOffset": 11404,
            "target": 34962
        }
    ],
    "scenes": [
        {
            "name": "Root Scene",
            "nodes": [
                0
            ]
        }
    ],
    "accessors": [
        {
            "componentType": 5126,
            "type": "SCALAR",
            "count": 1,
            "bufferView": 0,
            "byteOffset": 0,
            "min": [
                0.0
            ],
            "max": [
                0.0
            ]
        },
        {
            "componentType": 5123,
            "type": "SCALAR",
            "count": 2820,
            "bufferView": 1,
            "byteOffset": 0
        },
        {
            "componentType": 5126,
            "type": "VEC3",
            "count": 480,
            "bufferView": 2,
            "byteOffset": 0,
            "min": [
                -0.000234921273658983,
                -0.000700370699632913,
                -0.000623623607680202
            ],
            "max": [
                -6.14586169831455e-05,
                0.00070042273728177,
                0.000727641338016838
            ]
        },
        {
            "componentType": 5126,
            "type": "VEC3",
            "count": 480,
            "bufferView": 3,
            "byteOffset": 0
        }
    ],
    "samplers": [
        {}
    ],
    "materials": [
        {
            "name": "Bolt(Black)",
            "alphaMode": "OPAQUE",
            "doubleSided": false,
            "extras": {
                "fromFBX": {
                    "shadingModel": "Phong",
                    "isTruePBR": false
                }
            },
            "pbrMetallicRoughness": {
                "baseColorFactor": [
                    0.800000011920929,
                    0.800000011920929,
                    0.800000011920929,
                    1.0
                ],
                "metallicFactor": 0.400000005960464,
                "roughnessFactor": 0.301511347293854
            }
        }
    ],
    "meshes": [
        {
            "name": "Bolt.002",
            "primitives": [
                {
                    "material": 0,
                    "mode": 4,
                    "attributes": {
                        "NORMAL": 3,
                        "POSITION": 2
                    },
                    "indices": 1
                }
            ]
        }
    ],
    "animations": [
        {
            "name": "Take 001",
            "channels": [],
            "samplers": []
        }
    ],
    "nodes": [
        {
            "name": "RootNode",
            "translation": [
                0.0,
                0.0,
                0.0
            ],
            "rotation": [
                0.0,
                0.0,
                0.0,
                1.0
            ],
            "scale": [
                1.0,
                1.0,
                1.0
            ],
            "children": [
                1
            ]
        },
        {
            "name": "Bolt.002",
            "translation": [
                -0.950224995613098,
                0.327938228845596,
                -1.42420363426208
            ],
            "rotation": [
                -1.37678767941907e-07,
                0.707106828689575,
                0.70710676908493,
                1.37678782152761e-07
            ],
            "scale": [
                100.0,
                100.0,
                100.0
            ],
            "mesh": 0
        }
    ]
}