{
    "asset": {
        "generator": "FBX2glTF v0.13.1",
        "version": "2.0"
    },
    "scene": 0,
    "buffers": [
        {
            "byteLength": 25340,
            "uri": "data:application/octet-stream;base64,"
        }
    ],
    "bufferViews": [
        {
            "buffer": 0,
            "byteLength": 4,
            "byteOffset": 0
        },
        {
            "buffer": 0,
            "byteLength": 3768,
            "byteOffset": 4,
            "target": 34963
        },
        {
            "buffer": 0,
            "byteLength": 4080,
            "byteOffset": 3772,
            "target": 34962
        },
        {
            "buffer": 0,
            "byteLength": 4080,
            "byteOffset": 7852,
            "target": 34962
        },
        {
            "buffer": 0,
            "byteLength": 2720,
            "byteOffset": 11932,
            "target": 34962
        },
        {
            "buffer": 0,
            "byteLength": 2688,
            "byteOffset": 14652,
            "target": 34963
        },
        {
            "buffer": 0,
            "byteLength": 3000,
            "byteOffset": 17340,
            "target": 34962
        },
        {
            "buffer": 0,
            "byteLength": 3000,
            "byteOffset": 20340,
            "target": 34962
        },
        {
            "buffer": 0,
            "byteLength": 2000,
            "byteOffset": 23340,
            "target": 34962
        }
    ],
    "scenes": [
        {
            "name": "Root Scene",
            "nodes": [
                0
            ]
        }
    ],
    "accessors": [
        {
            "componentType": 5126,
            "type": "SCALAR",
            "count": 1,
            "bufferView": 0,
            "byteOffset": 0,
            "min": [
                0.0
            ],
            "max": [
                0.0
            ]
        },
        {
            "componentType": 5123,
            "type": "SCALAR",
            "count": 1884,
            "bufferView": 1,
            "byteOffset": 0
        },
        {
            "componentType": 5126,
            "type": "VEC3",
            "count": 340,
            "bufferView": 2,
            "byteOffset": 0,
            "min": [
                -0.00979405175894499,
                -0.00981343258172274,
                -0.00158199307043105
            ],
            "max": [
                0.00979405175894499,
                0.00981341302394867,
                0.0286687072366476
            ]
        },
        {
            "componentType": 5126,
            "type": "VEC3",
            "count": 340,
            "bufferView": 3,
            "byteOffset": 0
        },
        {
            "componentType": 5126,
            "type": "VEC2",
            "count": 340,
            "bufferView": 4,
            "byteOffset": 0
        },
        {
            "componentType": 5123,
            "type": "SCALAR",
            "count": 1344,
            "bufferView": 5,
            "byteOffset": 0
        },
        {
            "componentType": 5126,
            "type": "VEC3",
            "count": 250,
            "bufferView": 6,
            "byteOffset": 0,
            "min": [
                -0.0163080357015133,
                -0.0163402929902077,
                -0.0156962964683771
            ],
            "max": [
                0.0163080375641584,
                0.0163402743637562,
                -0.00158195488620549
            ]
        },
        {
            "componentType": 5126,
            "type": "VEC3",
            "count": 250,
            "bufferView": 7,
            "byteOffset": 0
        },
        {
            "componentType": 5126,
            "type": "VEC2",
            "count": 250,
            "bufferView": 8,
            "byteOffset": 0
        }
    ],
    "samplers": [
        {}
    ],
    "materials": [
        {
            "name": "Axe2",
            "alphaMode": "OPAQUE",
            "doubleSided": false,
            "extras": {
                "fromFBX": {
                    "shadingModel": "Phong",
                    "isTruePBR": false
                }
            },
            "pbrMetallicRoughness": {
                "baseColorFactor": [
                    0.800000011920929,
                    0.800000011920929,
                    0.800000011920929,
                    1.0
                ],
                "metallicFactor": 0.400000005960464,
                "roughnessFactor": 0.301511347293854
            }
        },
        {
            "name": "BrakeDisc2",
            "alphaMode": "OPAQUE",
            "doubleSided": false,
            "extras": {
                "fromFBX": {
                    "shadingModel": "Phong",
                    "isTruePBR": false
                }
            },
            "pbrMetallicRoughness": {
                "baseColorFactor": [
                    0.800000011920929,
                    0.800000011920929,
                    0.800000011920929,
                    1.0
                ],
                "metallicFactor": 0.400000005960464,
                "roughnessFactor": 0.301511347293854
            }
        }
    ],
    "meshes": [
        {
            "name": "BrakeDisc.002",
            "primitives": [
                {
                    "material": 0,
                    "mode": 4,
                    "attributes": {
                        "NORMAL": 3,
                        "POSITION": 2,
                        "TEXCOORD_0": 4
                    },
                    "indices": 1
                },
                {
                    "material": 1,
                    "mode": 4,
                    "attributes": {
                        "NORMAL": 7,
                        "POSITION": 6,
                        "TEXCOORD_0": 8
                    },
                    "indices": 5
                }
            ]
        }
    ],
    "animations": [
        {
            "name": "Take 001",
            "channels": [],
            "samplers": []
        }
    ],
    "nodes": [
        {
            "name": "RootNode",
            "translation": [
                0.0,
                0.0,
                0.0
            ],
            "rotation": [
                0.0,
                0.0,
                0.0,
                1.0
            ],
            "scale": [
                1.0,
                1.0,
                1.0
            ],
            "children": [
                1
            ]
        },
        {
            "name": "BrakeDisc.002",
            "translation": [
                -0.858573496341705,
                0.327938228845596,
                -1.42420363426208
            ],
            "rotation": [
                0.500000059604645,
                -0.500000059604645,
                -0.499999910593033,
                0.499999940395355
            ],
            "scale": [
                11.3626861572266,
                11.3626861572266,
                2.16756510734558
            ],
            "mesh": 0
        }
    ]
}