{
    "asset": {
        "generator": "FBX2glTF v0.13.1",
        "version": "2.0"
    },
    "scene": 0,
    "buffers": [
        {
            "byteLength": 32392,
            "uri": "data:application/octet-stream;base64,"
        }
    ],
    "bufferViews": [
        {
            "buffer": 0,
            "byteLength": 4,
            "byteOffset": 0
        },
        {
            "buffer": 0,
            "byteLength": 4740,
            "byteOffset": 4,
            "target": 34963
        },
        {
            "buffer": 0,
            "byteLength": 10368,
            "byteOffset": 4744,
            "target": 34962
        },
        {
            "buffer": 0,
            "byteLength": 10368,
            "byteOffset": 15112,
            "target": 34962
        },
        {
            "buffer": 0,
            "byteLength": 6912,
            "byteOffset": 25480,
            "target": 34962
        }
    ],
    "scenes": [
        {
            "name": "Root Scene",
            "nodes": [
                0
            ]
        }
    ],
    "accessors": [
        {
            "componentType": 5126,
            "type": "SCALAR",
            "count": 1,
            "bufferView": 0,
            "byteOffset": 0,
            "min": [
                0.0
            ],
            "max": [
                0.0
            ]
        },
        {
            "componentType": 5123,
            "type": "SCALAR",
            "count": 2370,
            "bufferView": 1,
            "byteOffset": 0
        },
        {
            "componentType": 5126,
            "type": "VEC3",
            "count": 864,
            "bufferView": 2,
            "byteOffset": 0,
            "min": [
                -0.0303170010447502,
                -0.127508997917175,
                -0.0201858524233103
            ],
            "max": [
                0.046856764703989,
                0.127508997917175,
                1.14440915410796e-07
            ]
        },
        {
            "componentType": 5126,
            "type": "VEC3",
            "count": 864,
            "bufferView": 3,
            "byteOffset": 0
        },
        {
            "componentType": 5126,
            "type": "VEC2",
            "count": 864,
            "bufferView": 4,
            "byteOffset": 0
        }
    ],
    "samplers": [
        {}
    ],
    "materials": [
        {
            "name": "Brake",
            "alphaMode": "OPAQUE",
            "doubleSided": false,
            "extras": {
                "fromFBX": {
                    "shadingModel": "Phong",
                    "isTruePBR": false
                }
            },
            "pbrMetallicRoughness": {
                "baseColorFactor": [
                    0.800000011920929,
                    0.800000011920929,
                    0.800000011920929,
                    1.0
                ],
                "metallicFactor": 0.400000005960464,
                "roughnessFactor": 0.301511347293854
            }
        }
    ],
    "meshes": [
        {
            "name": "Brake",
            "primitives": [
                {
                    "material": 0,
                    "mode": 4,
                    "attributes": {
                        "NORMAL": 3,
                        "POSITION": 2,
                        "TEXCOORD_0": 4
                    },
                    "indices": 1
                }
            ]
        }
    ],
    "animations": [
        {
            "name": "Take 001",
            "channels": [],
            "samplers": []
        }
    ],
    "nodes": [
        {
            "name": "RootNode",
            "translation": [
                0.0,
                0.0,
                0.0
            ],
            "rotation": [
                0.0,
                0.0,
                0.0,
                1.0
            ],
            "scale": [
                1.0,
                1.0,
                1.0
            ],
            "children": [
                1
            ]
        },
        {
            "name": "Brake",
            "translation": [
                0.858006715774536,
                0.327938228845596,
                1.06439757347107
            ],
            "rotation": [
                1.54543133845664e-08,
                0.70710676908493,
                -1.54543116082095e-08,
                0.707106828689575
            ],
            "scale": [
                1.06942653656006,
                1.06942653656006,
                1.40040850639343
            ],
            "mesh": 0
        }
    ]
}