{
    "asset": {
        "generator": "FBX2glTF v0.13.1",
        "version": "2.0"
    },
    "scene": 0,
    "buffers": [
        {
            "byteLength": 271396,
            "uri": "data:application/octet-stream;base64,"
        }
    ],
    "bufferViews": [
        {
            "buffer": 0,
            "byteLength": 4,
            "byteOffset": 0
        },
        {
            "buffer": 0,
            "byteLength": 52224,
            "byteOffset": 4,
            "target": 34963
        },
        {
            "buffer": 0,
            "byteLength": 55488,
            "byteOffset": 52228,
            "target": 34962
        },
        {
            "buffer": 0,
            "byteLength": 55488,
            "byteOffset": 107716,
            "target": 34962
        },
        {
            "buffer": 0,
            "byteLength": 36992,
            "byteOffset": 163204,
            "target": 34962
        },
        {
            "buffer": 0,
            "byteLength": 18432,
            "byteOffset": 200196,
            "target": 34963
        },
        {
            "buffer": 0,
            "byteLength": 19788,
            "byteOffset": 218628,
            "target": 34962
        },
        {
            "buffer": 0,
            "byteLength": 19788,
            "byteOffset": 238416,
            "target": 34962
        },
        {
            "buffer": 0,
            "byteLength": 13192,
            "byteOffset": 258204,
            "target": 34962
        }
    ],
    "scenes": [
        {
            "name": "Root Scene",
            "nodes": [
                0
            ]
        }
    ],
    "accessors": [
        {
            "componentType": 5126,
            "type": "SCALAR",
            "count": 1,
            "bufferView": 0,
            "byteOffset": 0,
            "min": [
                0.0
            ],
            "max": [
                0.0
            ]
        },
        {
            "componentType": 5123,
            "type": "SCALAR",
            "count": 26112,
            "bufferView": 1,
            "byteOffset": 0
        },
        {
            "componentType": 5126,
            "type": "VEC3",
            "count": 4624,
            "bufferView": 2,
            "byteOffset": 0,
            "min": [
                -0.0470680892467499,
                -0.0261469651013613,
                -0.00224653724581003
            ],
            "max": [
                0.0470680892467499,
                0.0288397092372179,
                0.0226690955460072
            ]
        },
        {
            "componentType": 5126,
            "type": "VEC3",
            "count": 4624,
            "bufferView": 3,
            "byteOffset": 0
        },
        {
            "componentType": 5126,
            "type": "VEC2",
            "count": 4624,
            "bufferView": 4,
            "byteOffset": 0
        },
        {
            "componentType": 5123,
            "type": "SCALAR",
            "count": 9216,
            "bufferView": 5,
            "byteOffset": 0
        },
        {
            "componentType": 5126,
            "type": "VEC3",
            "count": 1649,
            "bufferView": 6,
            "byteOffset": 0,
            "min": [
                -0.0434142611920834,
                -0.0175015535205603,
                0.00122036936227232
            ],
            "max": [
                0.0434142611920834,
                0.0264546144753695,
                0.0212697926908731
            ]
        },
        {
            "componentType": 5126,
            "type": "VEC3",
            "count": 1649,
            "bufferView": 7,
            "byteOffset": 0
        },
        {
            "componentType": 5126,
            "type": "VEC2",
            "count": 1649,
            "bufferView": 8,
            "byteOffset": 0
        }
    ],
    "samplers": [
        {}
    ],
    "materials": [
        {
            "name": "WindscreenGlassBlack",
            "alphaMode": "OPAQUE",
            "doubleSided": false,
            "extras": {
                "fromFBX": {
                    "shadingModel": "Phong",
                    "isTruePBR": false
                }
            },
            "pbrMetallicRoughness": {
                "baseColorFactor": [
                    0.800000011920929,
                    0.800000011920929,
                    0.800000011920929,
                    1.0
                ],
                "metallicFactor": 0.400000005960464,
                "roughnessFactor": 0.301511347293854
            }
        },
        {
            "name": "WindscreenGlassGrey1",
            "alphaMode": "OPAQUE",
            "doubleSided": false,
            "extras": {
                "fromFBX": {
                    "shadingModel": "Phong",
                    "isTruePBR": false
                }
            },
            "pbrMetallicRoughness": {
                "baseColorFactor": [
                    0.800000011920929,
                    0.800000011920929,
                    0.800000011920929,
                    1.0
                ],
                "metallicFactor": 0.400000005960464,
                "roughnessFactor": 0.301511347293854
            }
        }
    ],
    "meshes": [
        {
            "name": "Windscreen(Front)",
            "primitives": [
                {
                    "material": 0,
                    "mode": 4,
                    "attributes": {
                        "NORMAL": 3,
                        "POSITION": 2,
                        "TEXCOORD_0": 4
                    },
                    "indices": 1
                },
                {
                    "material": 1,
                    "mode": 4,
                    "attributes": {
                        "NORMAL": 7,
                        "POSITION": 6,
                        "TEXCOORD_0": 8
                    },
                    "indices": 5
                }
            ]
        }
    ],
    "animations": [
        {
            "name": "Take 001",
            "channels": [],
            "samplers": []
        }
    ],
    "nodes": [
        {
            "name": "RootNode",
            "translation": [
                0.0,
                0.0,
                0.0
            ],
            "rotation": [
                0.0,
                0.0,
                0.0,
                1.0
            ],
            "scale": [
                1.0,
                1.0,
                1.0
            ],
            "children": [
                1
            ]
        },
        {
            "name": "Windscreen(Front)",
            "translation": [
                0.0,
                0.827104151248932,
                0.868992209434509
            ],
            "rotation": [
                -0.70710676908493,
                0.0,
                0.0,
                0.70710676908493
            ],
            "scale": [
                15.2660961151123,
                15.2660961151123,
                15.2660961151123
            ],
            "mesh": 0
        }
    ]
}